<?xml version="1.0" encoding="UTF-8" standalone="no"?>
<svg
   xmlns:dc="http://purl.org/dc/elements/1.1/"
   xmlns:cc="http://creativecommons.org/ns#"
   xmlns:rdf="http://www.w3.org/1999/02/22-rdf-syntax-ns#"
   xmlns:svg="http://www.w3.org/2000/svg"
   xmlns="http://www.w3.org/2000/svg"
   xmlns:sodipodi="http://sodipodi.sourceforge.net/DTD/sodipodi-0.dtd"
   xmlns:inkscape="http://www.inkscape.org/namespaces/inkscape"
   version="1.0"
   width="1920.000000pt"
   height="765.000000pt"
   viewBox="0 0 1920.000000 765.000000"
   preserveAspectRatio="xMidYMid meet"
   id="svg64"
   sodipodi:docname="logo_PalTs_venge.svg"
   inkscape:version="0.92.4 (5da689c313, 2019-01-14)">
  <metadata
     id="metadata70">
    <rdf:RDF>
      <cc:Work
         rdf:about="">
        <dc:format>image/svg+xml</dc:format>
        <dc:type
           rdf:resource="http://purl.org/dc/dcmitype/StillImage" />
        <dc:title></dc:title>
      </cc:Work>
    </rdf:RDF>
  </metadata>
  <defs
     id="defs68" />
  <sodipodi:namedview
     pagecolor="#ffffff"
     bordercolor="#666666"
     borderopacity="1"
     objecttolerance="10"
     gridtolerance="10"
     guidetolerance="10"
     inkscape:pageopacity="0"
     inkscape:pageshadow="2"
     inkscape:window-width="1920"
     inkscape:window-height="1001"
     id="namedview66"
     showgrid="false"
     inkscape:zoom="0.26074563"
     inkscape:cx="814.07777"
     inkscape:cy="273.59258"
     inkscape:window-x="-9"
     inkscape:window-y="-9"
     inkscape:window-maximized="1"
     inkscape:current-layer="svg64" />
  <g
     transform="translate(0.000000,765.000000) scale(0.100000,-0.100000)"
     fill="#000000"
     stroke="none"
     id="g62"
     style="fill:#2c1108;fill-opacity:1">
    <path
       d="M16625 7628 c-2 -7 -11 -31 -19 -53 -8 -22 -31 -78 -51 -125 -166 -392 -233 -587 -287 -845 -20 -98 -23 -137 -23 -360 0 -240 1 -254 28 -360 76 -301 172 -471 552 -980 78 -104 161 -218 185 -252 24 -35 50 -63 58 -63 7 0 55 31 107 69 290 216 473 482 562 821 22 83 25 123 30 310 5 206 4 220 -22 335 -43 197 -126 395 -207 497 -17 22 -121 117 -232 212 -296 254 -412 374 -521 536 -58 88 -87 143 -115 219 -17 46 -36 63 -45 39z m570 -1063 c116 -29 203 -81 295 -174 135 -135 190 -268 190 -455 0 -181 -56 -314 -189 -447 -134 -134 -266 -189 -451 -189 -185 0 -317 55 -451 189 -134 134 -189 266 -189 451 0 185 55 317 189 451 92 92 179 144 291 173 74 20 240 20 315 1z"
       id="path2"
       style="fill:#2c1108;fill-opacity:1" />
    <path
       d="M17005 6468 c3 -61 2 -69 -3 -31 -11 76 -25 79 -19 3 6 -64 6 -64 -5 -20 -11 42 -12 43 -16 16 -3 -22 -6 -26 -13 -15 -6 10 -9 8 -9 -11 0 -20 -2 -22 -10 -10 -8 13 -10 12 -10 -3 0 -10 -4 -15 -10 -12 -5 3 -10 1 -10 -5 0 -6 -4 -8 -10 -5 -5 3 -10 1 -10 -5 0 -7 -6 -10 -14 -7 -8 3 -16 1 -18 -5 -2 -6 -16 -10 -31 -10 -17 0 -24 -5 -20 -12 4 -6 -2 -4 -12 4 -17 14 -18 13 -12 -5 7 -20 7 -20 -8 -1 -16 21 -33 15 -19 -7 5 -7 -1 -1 -13 13 -31 35 -29 7 3 -38 28 -40 3 -14 -42 43 -13 17 -24 24 -24 16 0 -7 18 -36 41 -65 30 -38 24 -33 -24 19 -36 38 -68 68 -71 65 -3 -3 27 -40 65 -83 39 -42 67 -77 63 -77 -4 0 -38 29 -75 65 -37 36 -73 65 -80 65 -8 0 16 -27 51 -61 47 -44 52 -51 19 -25 -65 51 -74 44 -14 -11 38 -34 41 -39 13 -19 -40 28 -57 34 -39 13 6 -8 8 -17 4 -20 -3 -4 0 -14 8 -24 12 -14 12 -15 0 -9 -9 6 -12 5 -9 -5 3 -8 -3 -36 -13 -63 -10 -27 -16 -53 -13 -57 3 -5 -1 -6 -9 -3 -19 7 -32 -27 -15 -38 9 -6 5 -7 -10 -3 -14 4 -28 1 -37 -9 -21 -21 -19 -26 13 -28 15 0 5 -4 -23 -8 -27 -4 -38 -8 -23 -8 15 -1 29 -6 32 -10 3 -5 -19 -7 -49 -4 -37 3 -55 1 -55 -7 0 -7 29 -11 86 -11 54 0 83 -4 79 -10 -3 -5 -42 -10 -86 -10 -46 0 -79 -4 -79 -10 0 -5 17 -10 38 -10 29 0 34 -3 22 -11 -11 -8 2 -9 50 -6 61 4 62 4 23 -6 -48 -11 -58 -26 -15 -21 15 2 19 1 9 -2 -9 -3 -15 -9 -12 -14 3 -5 13 -6 22 -3 10 4 14 2 9 -5 -3 -6 5 -27 19 -48 14 -20 25 -43 25 -50 0 -8 4 -14 9 -14 4 0 7 -14 5 -30 -4 -30 -3 -30 21 -14 14 9 25 14 25 11 0 -3 -15 -14 -32 -26 -38 -24 -20 -29 20 -5 26 15 26 15 7 -1 -11 -9 -29 -23 -39 -31 -11 -7 -17 -16 -14 -20 4 -3 24 6 45 21 38 27 15 4 -36 -36 -13 -11 -21 -22 -18 -25 3 -4 28 11 54 31 38 30 34 25 -17 -23 -36 -34 -60 -61 -54 -62 7 0 46 32 88 71 42 39 76 68 76 65 0 -3 -32 -40 -70 -82 -39 -43 -68 -80 -64 -83 3 -3 32 24 66 59 53 57 55 59 18 13 -52 -66 -37 -70 20 -5 32 36 36 38 16 10 -36 -50 -32 -61 6 -18 26 29 29 30 14 7 -10 -16 -14 -32 -10 -35 4 -4 9 -2 11 4 2 6 11 20 19 30 14 18 15 18 5 -3 -17 -34 -12 -40 9 -13 l19 25 -6 -25 c-5 -24 -5 -25 11 -5 12 15 15 16 10 3 -4 -12 2 -18 25 -23 17 -4 31 -11 31 -16 0 -6 5 -7 10 -4 6 3 10 1 10 -5 0 -6 5 -8 10 -5 6 3 10 -2 10 -12 0 -15 2 -16 10 -3 8 12 10 10 10 -10 0 -19 3 -21 9 -11 7 11 10 7 13 -15 4 -27 5 -26 15 16 l12 45 -6 -60 c-4 -42 -2 -57 5 -50 6 6 13 28 15 50 2 22 3 10 2 -27 -1 -38 2 -68 6 -68 5 0 9 19 10 43 1 54 10 141 15 146 2 2 4 -39 4 -92 0 -58 4 -97 10 -97 6 0 10 19 11 43 1 36 2 38 9 17 7 -21 8 -16 11 25 2 39 3 43 6 18 2 -18 8 -33 13 -33 5 0 7 15 6 33 -2 17 -1 24 1 15 6 -26 24 -22 20 5 -2 12 -2 16 0 10 8 -23 25 -14 18 10 -5 16 -4 18 4 8 8 -12 12 -12 25 -2 9 7 13 17 10 22 -3 5 1 6 9 3 8 -3 18 -1 21 4 3 5 18 7 32 4 23 -4 26 -2 21 14 -7 18 -6 18 9 -1 16 -20 16 -19 11 5 l-6 25 17 -22 c11 -13 26 -20 42 -19 14 1 31 -2 38 -7 27 -21 20 2 -14 44 -27 33 -22 29 21 -15 31 -32 59 -55 62 -52 4 4 -13 28 -38 54 -94 100 -101 113 -21 43 96 -85 122 -91 32 -7 -69 63 -74 74 -10 21 55 -46 66 -36 14 11 -35 32 -36 33 -6 14 39 -26 42 -15 5 18 -22 18 -23 21 -6 13 34 -17 40 -12 13 9 l-25 19 25 -6 c24 -5 25 -5 5 11 -16 13 -17 15 -2 10 9 -3 17 -1 17 5 0 6 -6 11 -12 11 -8 0 -9 3 -3 8 15 11 36 62 30 73 -3 5 1 6 9 3 19 -7 22 12 4 20 -7 3 -3 3 10 0 23 -6 31 10 10 20 -7 3 -3 3 10 0 12 -3 22 -1 22 5 0 5 -8 12 -17 14 -10 3 -2 6 17 7 33 2 33 3 10 10 -22 7 -20 8 15 10 22 1 34 4 28 7 -26 10 -12 19 22 15 21 -3 35 0 35 7 0 7 -28 11 -79 11 -44 0 -83 5 -86 10 -4 6 25 10 79 10 58 0 86 4 86 11 0 8 -17 10 -55 6 -33 -3 -53 -2 -50 4 4 5 18 10 33 11 17 0 11 4 -18 8 -25 4 -35 8 -22 8 12 1 22 6 22 11 0 4 -12 7 -27 5 -16 -2 -20 -1 -10 2 25 8 21 25 -5 21 -13 -2 -17 -2 -10 0 22 8 13 25 -10 19 -13 -3 -17 -3 -10 0 17 8 15 27 -2 21 -11 -4 -13 -1 -9 10 4 10 2 14 -4 10 -6 -4 -11 -1 -10 6 2 59 -4 79 -20 73 -17 -6 -17 -5 -1 7 19 15 13 32 -7 19 -6 -4 -3 0 7 10 27 25 22 33 -9 14 l-28 -17 29 26 c41 38 27 40 -25 4 -43 -30 -33 -20 32 35 17 15 29 30 25 33 -3 4 -19 -5 -34 -18 -15 -14 -36 -31 -47 -39 -11 -7 9 14 45 47 92 86 71 86 -25 0 -85 -76 -84 -68 2 25 29 31 53 62 53 70 0 7 -27 -17 -61 -52 -47 -50 -52 -54 -24 -17 21 26 33 47 27 47 -6 0 -13 -4 -16 -9 -3 -4 -18 -7 -33 -5 -15 1 -33 -2 -40 -8 -9 -7 -13 -7 -13 0 0 5 -16 9 -35 8 -19 -1 -35 3 -35 7 0 5 -9 7 -19 4 -13 -3 -18 0 -15 8 7 17 -27 29 -38 13 -6 -9 -7 -5 -3 10 7 23 -10 32 -18 10 -2 -7 -2 -3 0 10 4 26 -14 30 -20 5 -2 -10 -3 -3 -1 15 1 17 -1 32 -7 32 -5 0 -10 -12 -11 -27 0 -16 -4 -6 -8 22 -5 36 -7 42 -9 20 -1 -16 -6 -39 -10 -50 -5 -11 -6 13 -3 54 4 54 2 72 -7 67 -7 -5 -11 -43 -11 -108 0 -56 -2 -99 -4 -97 -7 6 -14 85 -15 152 -1 31 -5 57 -11 57 -5 0 -8 -33 -5 -82z m315 -147 c-5 -11 -15 -23 -21 -27 -6 -3 -3 5 6 20 20 30 30 35 15 7z m31 1 c-5 -10 -18 -25 -28 -33 -12 -10 -11 -5 6 19 24 35 38 43 22 14z m-238 -39 c-7 -2 -19 -2 -25 0 -7 3 -2 5 12 5 14 0 19 -2 13 -5z m23 -15 c-7 -5 -5 -8 5 -8 10 0 41 -16 69 -35 29 -20 55 -33 58 -31 5 6 -87 66 -102 66 -5 0 -7 3 -3 6 11 11 91 -43 133 -88 49 -53 82 -119 88 -178 4 -37 4 -40 -4 -15 -8 27 -8 25 -6 -15 2 -25 7 -53 11 -63 17 -39 -21 -143 -75 -209 -30 -36 -101 -94 -86 -70 10 17 6 16 -59 -14 -47 -22 -73 -27 -152 -28 -52 -1 -90 0 -84 2 6 2 -16 17 -49 33 -66 34 -126 95 -161 167 -20 39 -24 63 -24 142 0 84 3 102 28 151 45 93 144 170 240 188 51 10 189 9 173 -1z m-301 -43 c-16 -13 -33 -24 -37 -25 -14 0 -83 -107 -100 -154 -9 -28 -17 -43 -18 -33 -1 50 72 164 132 208 50 35 65 38 23 4z m-159 -26 c3 -6 -5 -3 -20 6 -14 10 -26 19 -26 22 0 7 39 -17 46 -28z m-109 -195 c-3 -3 -12 -4 -19 -1 -8 3 -5 6 6 6 11 1 17 -2 13 -5z m110 -51 c-3 -10 -5 -4 -5 12 0 17 2 24 5 18 2 -7 2 -21 0 -30z m-100 1 c-3 -3 -12 -4 -19 -1 -8 3 -5 6 6 6 11 1 17 -2 13 -5z m930 0 c-3 -3 -12 -4 -19 -1 -8 3 -5 6 6 6 11 1 17 -2 13 -5z m-830 -71 c-3 -10 -5 -4 -5 12 0 17 2 24 5 18 2 -7 2 -21 0 -30z m-129 20 c-10 -2 -26 -2 -35 0 -10 3 -2 5 17 5 19 0 27 -2 18 -5z m1000 0 c-10 -2 -26 -2 -35 0 -10 3 -2 5 17 5 19 0 27 -2 18 -5z m-41 -19 c-3 -3 -12 -4 -19 -1 -8 3 -5 6 6 6 11 1 17 -2 13 -5z m-820 -46 c-3 -8 -6 -5 -6 6 -1 11 2 17 5 13 3 -3 4 -12 1 -19z m100 -161 c38 -40 41 -45 15 -26 -38 27 -112 132 -112 158 0 9 11 -6 25 -33 13 -27 45 -71 72 -99z m-132 23 c-3 -5 -12 -10 -18 -10 -7 0 -6 4 3 10 19 12 23 12 15 0z m225 -96 c0 -2 -9 0 -20 6 -11 6 -20 13 -20 16 0 2 9 0 20 -6 11 -6 20 -13 20 -16z m316 1 c-11 -8 -25 -15 -30 -15 -6 1 0 7 14 15 32 19 40 18 16 0z m133 -36 c18 -22 31 -42 29 -45 -3 -2 -19 16 -37 41 -40 56 -35 59 8 4z m-182 15 c-3 -3 -12 -4 -19 -1 -8 3 -5 6 6 6 11 1 17 -2 13 -5z m-160 -10 c-3 -3 -12 -4 -19 -1 -8 3 -5 6 6 6 11 1 17 -2 13 -5z m341 -49 c-3 -3 -13 7 -23 22 l-17 28 23 -22 c12 -12 20 -25 17 -28z"
       id="path4"
       style="fill:#2c1108;fill-opacity:1" />
    <path
       d="M17014 6225 c-4 -8 -15 -15 -25 -15 -12 0 -19 -7 -19 -20 0 -13 7 -20 20 -20 11 0 20 -3 20 -7 0 -5 -27 -6 -60 -5 -55 4 -60 2 -60 -17 0 -19 6 -21 60 -21 l60 0 0 -100 c0 -84 -2 -98 -15 -94 -10 4 -15 0 -15 -14 0 -11 7 -25 15 -32 10 -8 15 -30 15 -61 l0 -49 -64 0 c-36 0 -68 5 -71 11 -4 6 -13 8 -21 5 -8 -3 -32 10 -54 31 -47 42 -64 40 -20 -2 17 -16 30 -33 30 -38 0 -4 19 -30 43 -58 l42 -49 161 0 c122 0 164 3 173 13 8 10 7 17 -2 26 -9 10 -5 18 19 39 28 24 54 60 54 76 0 13 -41 5 -46 -9 -5 -11 -24 -15 -80 -15 -57 0 -76 -4 -80 -15 -4 -8 -15 -15 -25 -15 -15 0 -19 7 -19 37 0 29 3 34 12 25 18 -18 28 -15 28 8 0 11 -9 25 -20 32 -18 12 -20 24 -20 130 l0 118 65 0 c58 0 65 2 65 20 0 18 -7 20 -67 21 -38 1 -58 4 -45 6 29 6 31 43 2 43 -11 0 -20 7 -20 15 0 8 -7 15 -15 15 -9 0 -18 -7 -21 -15z m-159 -476 c11 -17 -1 -21 -15 -4 -8 9 -8 15 -2 15 6 0 14 -5 17 -11z m85 -19 c0 -5 -4 -10 -10 -10 -5 0 -10 5 -10 10 0 6 5 10 10 10 6 0 10 -4 10 -10z m50 0 c0 -5 -4 -10 -10 -10 -5 0 -10 5 -10 10 0 6 5 10 10 10 6 0 10 -4 10 -10z m60 0 c0 -5 -4 -10 -10 -10 -5 0 -10 5 -10 10 0 6 5 10 10 10 6 0 10 -4 10 -10z m50 0 c0 -5 -4 -10 -10 -10 -5 0 -10 5 -10 10 0 6 5 10 10 10 6 0 10 -4 10 -10z m60 0 c0 -5 -4 -10 -10 -10 -5 0 -10 5 -10 10 0 6 5 10 10 10 6 0 10 -4 10 -10z"
       id="path6"
       style="fill:#2c1108;fill-opacity:1" />
    <path
       d="M17293 6158 c15 -21 39 -61 53 -90 17 -36 23 -43 19 -23 -7 34 -58 117 -83 137 -9 7 -4 -4 11 -24z"
       id="path8"
       style="fill:#2c1108;fill-opacity:1" />
    <path
       d="M16845 6058 c-53 -49 -70 -100 -55 -158 17 -62 98 -122 160 -118 22 1 40 3 40 4 0 2 -11 24 -25 50 -35 66 -34 134 3 208 l29 56 -53 0 c-47 0 -56 -4 -99 -42z"
       id="path10"
       style="fill:#2c1108;fill-opacity:1" />
    <path
       d="M17372 5880 c0 -19 2 -27 5 -17 2 9 2 25 0 35 -3 9 -5 1 -5 -18z"
       id="path12"
       style="fill:#2c1108;fill-opacity:1" />
    <path
       d="M17346 5792 c-11 -26 -43 -71 -70 -101 -28 -30 -41 -49 -29 -43 39 21 130 157 121 183 -2 5 -12 -13 -22 -39z"
       id="path14"
       style="fill:#2c1108;fill-opacity:1" />
    <path
       d="M14296 7084 c-27 -27 -20 -79 15 -108 41 -35 68 -41 174 -41 99 0 140 16 178 67 37 50 -5 110 -67 94 -23 -6 -26 -11 -26 -51 0 -40 -3 -47 -26 -55 -14 -6 -45 -10 -69 -10 -24 0 -55 4 -69 10 -23 8 -26 15 -26 54 0 31 -5 46 -16 50 -27 10 -52 7 -68 -10z"
       id="path16"
       style="fill:#2c1108;fill-opacity:1" />
    <path
       d="M4739 6868 c-9 -7 -85 -179 -168 -383 -84 -203 -159 -377 -167 -385 -8 -8 -29 -20 -47 -26 -18 -6 -33 -18 -35 -27 -3 -15 10 -17 123 -17 113 0 126 2 123 17 -2 9 -18 21 -36 25 -43 11 -42 26 10 160 l41 108 141 0 141 0 38 -107 c47 -135 47 -150 5 -161 -18 -4 -34 -16 -36 -25 -3 -16 16 -17 224 -17 l227 1 32 33 c60 64 149 321 174 506 6 41 13 112 17 158 l7 82 98 0 99 0 0 -352 c0 -194 -4 -358 -8 -364 -4 -6 -24 -17 -45 -23 -72 -24 -38 -36 112 -39 129 -2 142 -1 139 14 -2 10 -19 22 -43 28 l-40 12 -3 339 c-1 187 0 350 3 361 3 15 16 25 42 31 23 5 39 15 41 26 3 16 -18 17 -283 17 -264 0 -286 -1 -283 -17 2 -10 19 -21 43 -28 66 -17 67 -19 60 -98 -30 -339 -150 -611 -286 -645 -37 -9 -50 -8 -84 7 l-41 18 -77 214 c-43 118 -105 293 -140 389 -50 141 -66 176 -82 178 -11 1 -27 -3 -36 -10z m100 -465 c1 -10 -28 -13 -114 -13 -63 0 -115 2 -115 5 0 7 111 298 118 309 5 9 110 -275 111 -301z"
       id="path18"
       style="fill:#2c1108;fill-opacity:1" />
    <path
       d="M6375 6866 c-192 -47 -305 -202 -305 -421 0 -266 153 -425 409 -425 239 0 400 137 433 368 13 98 -1 209 -37 285 -28 61 -94 131 -147 158 -91 47 -243 62 -353 35z m243 -61 c60 -24 118 -94 142 -171 40 -129 35 -307 -11 -415 -44 -102 -149 -157 -277 -146 -172 17 -258 128 -269 349 -7 122 7 208 42 279 36 70 76 99 170 123 37 9 160 -2 203 -19z"
       id="path20"
       style="fill:#2c1108;fill-opacity:1" />
    <path
       d="M11845 6866 c-83 -20 -146 -56 -211 -120 -87 -87 -108 -145 -109 -296 0 -134 10 -176 65 -258 43 -65 116 -121 190 -148 61 -21 183 -29 250 -15 95 20 191 74 169 95 -2 2 -38 -5 -79 -16 -212 -55 -396 32 -451 214 -30 98 -24 249 12 328 35 74 67 110 131 145 47 26 63 30 138 30 130 0 133 -1 155 -90 18 -76 39 -97 50 -52 16 68 31 168 26 171 -3 2 -33 9 -65 15 -77 14 -207 13 -271 -3z"
       id="path22"
       style="fill:#2c1108;fill-opacity:1" />
    <path
       d="M3482 6843 c2 -9 17 -21 33 -26 57 -18 55 -3 55 -371 0 -187 -4 -346 -8 -353 -4 -6 -23 -15 -42 -20 -20 -5 -36 -17 -38 -26 -3 -15 11 -17 143 -17 135 0 145 1 136 17 -5 10 -24 22 -43 29 l-33 11 -3 361 -2 362 200 0 200 0 -2 -362 -3 -363 -35 -11 c-19 -6 -36 -19 -38 -28 -3 -14 13 -16 142 -16 119 0 146 3 146 14 0 8 -19 21 -42 29 l-43 14 0 358 0 358 43 15 c23 7 42 20 42 28 0 12 -62 14 -406 14 -373 0 -405 -1 -402 -17z"
       id="path24"
       style="fill:#2c1108;fill-opacity:1" />
    <path
       d="M7010 6846 c0 -8 19 -21 43 -28 l42 -15 3 -361 2 -362 -45 -11 c-26 -7 -45 -17 -45 -25 0 -11 25 -14 121 -14 107 0 120 2 117 17 -2 9 -19 22 -38 28 l-35 12 -2 314 c-1 208 1 307 8 294 5 -11 69 -164 143 -340 119 -287 135 -320 157 -323 23 -3 32 16 163 330 76 183 143 337 147 343 10 11 12 -362 3 -517 l-7 -106 -38 -11 c-22 -7 -39 -18 -39 -26 0 -13 25 -15 145 -15 118 0 145 3 145 14 0 8 -19 21 -42 29 l-43 14 0 359 0 358 40 12 c24 6 41 18 43 28 3 15 -8 16 -109 14 l-112 -3 -129 -310 c-71 -170 -132 -313 -136 -317 -4 -4 -45 84 -91 195 -46 111 -107 255 -134 320 l-49 117 -114 0 c-92 0 -114 -3 -114 -14z"
       id="path26"
       style="fill:#2c1108;fill-opacity:1" />
    <path
       d="M8122 6843 c2 -9 19 -21 38 -28 23 -8 37 -20 41 -36 9 -32 9 -637 0 -669 -5 -17 -18 -29 -41 -36 -19 -6 -36 -19 -38 -28 -3 -14 13 -16 138 -16 126 0 141 2 138 17 -2 9 -19 22 -38 28 l-35 12 -3 181 -2 182 215 0 215 0 0 -172 c0 -95 -4 -178 -8 -184 -4 -6 -24 -17 -44 -23 -25 -8 -35 -17 -31 -27 4 -11 32 -14 145 -14 125 0 139 2 136 17 -2 9 -18 21 -38 26 -19 5 -38 14 -42 20 -4 7 -8 166 -8 353 0 368 -2 353 55 371 17 5 31 17 33 26 3 15 -12 17 -143 17 -135 0 -145 -1 -136 -17 5 -10 24 -22 43 -29 l33 -11 3 -151 3 -152 -216 0 -216 0 3 152 3 151 35 12 c19 6 36 19 38 28 3 15 -12 17 -138 17 -126 0 -141 -2 -138 -17z"
       id="path28"
       style="fill:#2c1108;fill-opacity:1" />
    <path
       d="M9072 6843 c2 -9 19 -22 38 -28 26 -9 37 -19 41 -41 4 -16 7 -164 7 -329 0 -165 -3 -313 -7 -329 -4 -22 -15 -32 -41 -41 -19 -6 -36 -19 -38 -28 -3 -15 12 -17 138 -17 126 0 141 2 138 17 -2 9 -19 22 -38 28 -33 11 -35 14 -37 61 l-3 49 210 225 c116 124 215 227 220 228 11 4 14 -457 4 -519 -5 -32 -11 -38 -46 -48 -76 -23 -40 -36 111 -39 129 -2 142 -1 139 14 -2 10 -19 22 -43 28 l-40 12 -3 339 c-1 187 0 350 3 361 3 15 16 25 42 31 23 5 39 15 41 26 3 15 -10 17 -142 17 -119 0 -146 -3 -146 -14 0 -8 19 -21 43 -28 36 -12 42 -19 45 -45 3 -27 -20 -54 -215 -263 l-218 -234 -3 132 c-1 73 -1 191 0 264 l3 131 35 12 c19 6 36 19 38 28 3 15 -12 17 -138 17 -126 0 -141 -2 -138 -17z"
       id="path30"
       style="fill:#2c1108;fill-opacity:1" />
    <path
       d="M9990 6846 c0 -8 19 -21 43 -28 l42 -15 5 -144 c7 -193 28 -234 134 -269 52 -17 174 -7 250 19 33 12 61 21 63 21 7 0 2 -301 -6 -322 -6 -16 -23 -28 -50 -37 -24 -7 -41 -18 -41 -26 0 -13 25 -15 151 -15 135 0 150 2 147 17 -2 9 -20 21 -43 27 l-40 12 -3 339 c-1 187 0 350 3 361 3 15 16 25 42 31 23 5 39 15 41 26 3 15 -10 17 -142 17 -121 0 -146 -2 -146 -15 0 -8 17 -19 39 -26 26 -8 41 -19 45 -33 3 -11 6 -85 6 -163 l0 -142 -37 -11 c-21 -6 -68 -13 -104 -17 -53 -5 -74 -2 -112 15 -66 29 -77 59 -77 212 l0 121 35 15 c19 8 35 21 35 29 0 13 -23 15 -140 15 -114 0 -140 -3 -140 -14z"
       id="path32"
       style="fill:#2c1108;fill-opacity:1" />
    <path
       d="M10842 6843 c2 -9 17 -21 33 -26 57 -18 55 -3 55 -371 0 -187 -4 -346 -8 -353 -4 -6 -23 -15 -42 -20 -20 -5 -36 -17 -38 -26 -3 -16 20 -17 281 -17 l284 0 6 68 c10 97 8 142 -3 142 -6 0 -28 -36 -48 -80 l-37 -79 -142 -1 -143 0 0 175 0 176 102 -3 102 -3 14 -47 c8 -29 19 -48 28 -48 11 0 14 23 14 125 0 102 -3 125 -14 125 -9 0 -20 -19 -28 -47 l-14 -48 -102 -3 -102 -3 0 166 0 166 137 -3 137 -3 16 -65 c23 -94 40 -87 61 28 l16 92 -284 0 c-260 0 -284 -1 -281 -17z"
       id="path34"
       style="fill:#2c1108;fill-opacity:1" />
    <path
       d="M12302 6843 c2 -9 18 -21 37 -28 19 -6 38 -20 42 -31 11 -28 11 -648 -1 -678 -6 -16 -21 -28 -42 -34 -18 -4 -34 -16 -36 -25 -3 -15 11 -17 138 -17 126 0 141 2 138 17 -2 9 -19 22 -38 28 l-35 12 -3 166 -2 167 50 0 c63 0 71 -8 146 -141 128 -229 144 -244 258 -244 88 0 110 15 52 35 -49 16 -92 69 -201 245 l-92 150 29 33 c16 18 53 82 83 141 59 118 95 158 154 167 33 5 37 9 33 30 -4 23 -8 24 -82 24 -43 0 -86 -3 -95 -6 -23 -9 -44 -56 -72 -158 -13 -50 -35 -115 -48 -144 -29 -63 -64 -82 -155 -82 l-60 0 2 167 3 166 35 12 c19 6 36 19 38 28 3 15 -12 17 -138 17 -126 0 -141 -2 -138 -17z"
       id="path36"
       style="fill:#2c1108;fill-opacity:1" />
    <path
       d="M13102 6843 c2 -9 19 -22 38 -28 26 -9 37 -19 41 -41 4 -16 7 -164 7 -329 0 -165 -3 -313 -7 -329 -4 -22 -15 -32 -41 -41 -19 -6 -36 -19 -38 -28 -3 -15 12 -17 138 -17 126 0 141 2 138 17 -2 9 -19 22 -38 28 -33 11 -35 14 -37 61 l-3 49 210 225 c116 124 215 227 220 228 11 4 14 -457 4 -519 -5 -32 -11 -38 -46 -48 -76 -23 -40 -36 111 -39 129 -2 142 -1 139 14 -2 10 -19 22 -43 28 l-40 12 -3 339 c-1 187 0 350 3 361 3 15 16 25 42 31 23 5 39 15 41 26 3 15 -10 17 -142 17 -119 0 -146 -3 -146 -14 0 -8 19 -21 43 -28 36 -12 42 -19 45 -45 3 -27 -20 -54 -215 -263 l-218 -234 -3 132 c-1 73 -1 191 0 264 l3 131 35 12 c19 6 36 19 38 28 3 15 -12 17 -138 17 -126 0 -141 -2 -138 -17z"
       id="path38"
       style="fill:#2c1108;fill-opacity:1" />
    <path
       d="M14062 6843 c2 -9 17 -21 33 -26 57 -18 55 -3 55 -371 0 -187 -4 -346 -8 -353 -4 -6 -23 -15 -42 -20 -20 -5 -36 -17 -38 -26 -3 -15 11 -17 143 -17 135 0 145 1 136 17 -5 10 -24 22 -43 29 -32 10 -33 13 -33 61 l0 51 215 231 215 232 3 -263 c1 -145 0 -272 -2 -284 -4 -14 -19 -25 -46 -33 -78 -23 -43 -36 109 -39 129 -2 142 -1 139 14 -2 10 -19 22 -43 28 l-40 12 -3 339 c-1 187 0 350 3 361 3 15 16 25 42 31 23 5 39 15 41 26 3 15 -10 17 -142 17 -119 0 -146 -3 -146 -14 0 -8 19 -21 43 -28 36 -12 42 -19 45 -45 3 -27 -20 -54 -215 -263 l-218 -234 -3 255 c-1 139 0 259 2 264 2 6 22 17 45 23 29 9 39 17 35 27 -5 12 -32 15 -146 15 -125 0 -139 -2 -136 -17z"
       id="path40"
       style="fill:#2c1108;fill-opacity:1" />
    <path
       d="M7202 5723 c2 -9 18 -21 38 -26 19 -5 38 -14 42 -20 4 -7 8 -166 8 -353 0 -368 2 -353 -55 -371 -16 -5 -31 -17 -33 -26 -3 -16 26 -17 356 -17 l360 0 23 -120 c19 -100 26 -120 41 -120 10 0 18 6 18 13 0 7 7 67 15 132 8 66 15 126 15 133 0 8 -19 12 -60 12 l-60 0 2 362 3 361 43 15 c77 25 46 37 -107 40 -128 2 -142 1 -139 -14 2 -9 19 -22 38 -28 l35 -11 3 -362 2 -363 -195 0 -195 0 0 353 c0 193 4 357 8 363 4 6 24 17 44 23 25 8 35 17 31 27 -4 11 -32 14 -145 14 -125 0 -139 -2 -136 -17z"
       id="path42"
       style="fill:#2c1108;fill-opacity:1" />
    <path
       d="M8132 5723 c2 -9 17 -21 33 -26 57 -18 55 -3 55 -371 0 -187 -4 -346 -8 -353 -4 -6 -23 -15 -42 -20 -20 -5 -36 -17 -38 -26 -3 -16 20 -17 281 -17 l284 0 6 68 c10 97 8 142 -3 142 -6 0 -28 -36 -48 -80 l-37 -79 -142 -1 -143 0 0 175 0 176 102 -3 102 -3 14 -47 c8 -29 19 -48 28 -48 11 0 14 23 14 125 0 102 -3 125 -14 125 -9 0 -20 -19 -28 -47 l-14 -48 -102 -3 -102 -3 0 166 0 166 137 -3 137 -3 16 -65 c23 -94 40 -87 61 28 l16 92 -284 0 c-260 0 -284 -1 -281 -17z"
       id="path44"
       style="fill:#2c1108;fill-opacity:1" />
    <path
       d="M8832 5723 c2 -9 19 -21 38 -28 23 -8 37 -20 41 -36 9 -32 9 -637 0 -669 -5 -17 -18 -29 -41 -36 -19 -6 -36 -19 -38 -28 -3 -14 13 -16 138 -16 126 0 141 2 138 17 -2 9 -19 22 -38 28 l-35 12 -3 181 -2 182 215 0 215 0 0 -172 c0 -95 -4 -178 -8 -184 -4 -6 -24 -17 -44 -23 -25 -8 -35 -17 -31 -27 4 -11 32 -14 145 -14 125 0 139 2 136 17 -2 9 -18 21 -38 26 -19 5 -38 14 -42 20 -4 7 -8 166 -8 353 0 368 -2 353 55 371 17 5 31 17 33 26 3 15 -12 17 -143 17 -135 0 -145 -1 -136 -17 5 -10 24 -22 43 -29 l33 -11 3 -151 3 -152 -216 0 -216 0 3 152 3 151 35 12 c19 6 36 19 38 28 3 15 -12 17 -138 17 -126 0 -141 -2 -138 -17z"
       id="path46"
       style="fill:#2c1108;fill-opacity:1" />
    <path
       d="M9726 5668 c11 -164 24 -175 63 -55 l25 77 103 0 103 0 0 -359 0 -360 -47 -13 c-30 -9 -49 -20 -51 -31 -3 -15 11 -17 157 -17 132 0 161 3 161 14 0 8 -21 21 -50 31 l-50 17 0 359 0 359 100 0 99 0 10 -37 c6 -21 14 -56 19 -78 14 -70 35 -51 54 50 9 50 17 96 17 103 1 9 -77 12 -358 12 l-360 0 5 -72z"
       id="path48"
       style="fill:#2c1108;fill-opacity:1" />
    <path
       d="M10512 5723 c2 -9 17 -21 33 -26 57 -18 55 -3 55 -371 0 -187 -4 -346 -8 -353 -4 -6 -23 -15 -42 -20 -20 -5 -36 -17 -38 -26 -3 -15 11 -17 147 -17 124 0 151 3 151 14 0 8 -17 20 -37 27 -63 20 -63 19 -63 164 l0 133 98 4 c116 5 184 31 237 89 63 70 83 206 40 288 -22 43 -86 87 -146 100 -27 6 -136 11 -240 11 -172 0 -190 -2 -187 -17z m353 -44 c79 -22 115 -78 115 -182 0 -77 -30 -143 -77 -170 -36 -20 -127 -33 -167 -23 l-26 6 0 184 c0 100 3 186 7 189 10 11 104 8 148 -4z"
       id="path50"
       style="fill:#2c1108;fill-opacity:1" />
    <path
       d="M2165 4404 c-185 -18 -259 -29 -387 -54 -343 -69 -667 -212 -930 -411 -104 -79 -271 -241 -351 -339 -243 -301 -392 -681 -438 -1117 -16 -155 -7 -565 16 -708 141 -898 775 -1541 1665 -1689 519 -86 1049 -17 1481 192 93 45 285 156 306 176 2 1 -28 128 -31 133 -1 1 -60 -16 -131 -38 -935 -283 -1771 -125 -2231 424 -232 276 -360 578 -420 992 -21 145 -24 530 -6 675 64 493 233 856 528 1140 226 217 496 335 852 371 127 13 346 6 498 -16 113 -17 334 -62 342 -70 3 -3 53 -178 112 -390 59 -212 110 -388 112 -391 6 -6 93 7 108 16 14 9 192 920 188 960 -3 22 -11 27 -78 42 -108 25 -353 65 -510 84 -127 14 -605 27 -695 18z"
       id="path52"
       style="fill:#2c1108;fill-opacity:1" />
    <path
       d="M17052 4386 c-91 -14 -136 -26 -142 -36 -4 -8 -355 -845 -780 -1860 -424 -1015 -790 -1879 -812 -1920 -74 -140 -115 -167 -358 -240 -80 -24 -148 -46 -153 -50 -4 -3 -4 -33 -1 -66 l6 -59 649 0 649 0 -1 40 c-2 85 1 83 -170 134 -170 51 -205 68 -220 109 -25 63 10 168 285 872 l154 395 720 3 719 2 16 -42 c57 -151 357 -1025 371 -1079 27 -109 18 -162 -33 -196 -14 -9 -96 -38 -181 -63 l-155 -47 -3 -43 c-2 -24 -1 -53 2 -64 l5 -21 767 0 766 0 -7 60 c-3 33 -9 63 -13 66 -4 3 -72 25 -152 49 -80 23 -167 53 -193 67 -68 34 -119 91 -163 182 -22 43 -345 923 -719 1955 -602 1660 -682 1876 -700 1875 -11 -1 -80 -11 -153 -23z m159 -1589 l287 -812 -310 -3 c-170 -1 -446 -1 -612 0 l-303 3 321 816 c176 450 323 815 326 813 2 -3 133 -370 291 -817z"
       id="path54"
       style="fill:#2c1108;fill-opacity:1" />
    <path
       d="M5250 4347 c-96 -5 -410 -10 -698 -11 l-523 -1 6 -60 c4 -33 10 -63 14 -66 3 -3 89 -32 191 -63 148 -46 190 -63 211 -85 l27 -29 7 -303 c4 -167 5 -968 3 -1779 -3 -1369 -5 -1477 -20 -1507 -20 -36 -36 -43 -266 -112 -90 -27 -164 -50 -166 -52 -2 -2 -1 -32 2 -66 l4 -62 497 2 c273 1 629 -2 791 -7 330 -10 484 -1 707 40 461 84 808 307 979 628 96 181 128 324 128 566 0 147 -3 189 -22 263 -69 275 -250 491 -530 631 -89 45 -252 100 -344 118 -38 7 -68 16 -68 20 0 3 17 12 38 19 206 67 444 235 557 394 123 173 170 339 169 595 -1 135 -5 180 -22 245 -78 291 -289 499 -613 605 -252 83 -562 105 -1059 77z m367 -248 c193 -21 351 -77 469 -164 121 -91 200 -232 235 -425 19 -107 15 -329 -9 -443 -71 -339 -314 -544 -695 -586 -53 -6 -198 -11 -322 -11 l-225 0 0 809 0 809 78 7 c42 3 88 7 102 9 64 8 280 5 367 -5z m118 -1884 c145 -22 237 -50 355 -107 90 -43 116 -62 185 -132 120 -120 178 -241 211 -436 23 -138 15 -398 -15 -517 -95 -379 -361 -594 -794 -642 -175 -20 -443 -8 -553 24 l-54 16 0 904 0 904 68 4 c134 9 497 -2 597 -18z"
       id="path56"
       style="fill:#2c1108;fill-opacity:1" />
    <path
       d="M7685 4275 c4 -33 10 -63 14 -66 3 -3 89 -32 191 -63 148 -46 190 -63 211 -85 l27 -29 7 -303 c4 -167 5 -968 3 -1779 -3 -1369 -5 -1477 -20 -1507 -20 -36 -36 -43 -266 -112 -90 -27 -164 -50 -166 -52 -2 -2 -1 -31 1 -64 l5 -60 1444 0 c901 1 1447 5 1453 10 10 11 76 1033 68 1042 -3 3 -34 -1 -68 -8 l-63 -14 -181 -375 -181 -375 -715 -3 -716 -2 -6 232 c-4 128 -7 520 -7 872 l0 638 498 -4 c377 -3 503 -7 520 -17 32 -17 41 -43 102 -276 29 -110 53 -200 54 -201 0 -1 36 2 79 5 l78 6 0 615 c0 613 0 615 -21 614 -11 0 -46 -1 -79 -2 l-58 -2 -54 -212 c-37 -145 -61 -220 -76 -238 -19 -23 -30 -26 -125 -31 -56 -4 -286 -7 -510 -8 l-408 -1 0 820 0 820 692 -2 692 -3 90 -332 c50 -182 94 -334 98 -338 3 -4 31 -2 62 5 47 10 55 15 60 38 45 219 166 887 163 895 -3 9 -355 12 -1451 12 l-1447 0 6 -60z"
       id="path58"
       style="fill:#2c1108;fill-opacity:1" />
    <path
       d="M10925 4275 c3 -33 9 -63 13 -66 4 -3 90 -32 192 -63 107 -34 194 -67 207 -79 13 -11 25 -34 28 -51 4 -17 10 -319 15 -671 7 -589 10 -647 28 -726 114 -482 462 -719 1060 -719 330 0 732 89 1077 240 28 12 60 26 73 31 l24 9 -4 -847 c-3 -781 -4 -851 -20 -880 -19 -33 -41 -44 -183 -87 -44 -13 -125 -38 -180 -55 l-100 -30 5 -63 5 -62 758 -1 757 0 0 42 c0 82 -1 83 -181 137 -211 62 -242 76 -257 112 -9 22 -12 451 -10 1811 l3 1781 23 24 c16 18 74 40 215 83 105 32 195 61 200 65 4 3 4 33 1 66 l-6 59 -724 0 -724 0 0 -62 0 -62 190 -61 c160 -51 193 -65 207 -87 17 -25 18 -85 21 -818 l4 -792 -74 -26 c-387 -139 -834 -175 -1125 -91 -247 71 -384 207 -443 441 -36 139 -43 288 -37 791 4 399 8 476 20 496 12 17 59 38 189 83 l173 60 3 43 c2 24 1 53 -2 64 l-5 21 -712 0 -711 0 7 -60z"
       id="path60"
       style="fill:#2c1108;fill-opacity:1" />
  </g>
</svg>
