<?xml version="1.0" encoding="UTF-8" standalone="no"?>
<svg
   xmlns:dc="http://purl.org/dc/elements/1.1/"
   xmlns:cc="http://creativecommons.org/ns#"
   xmlns:rdf="http://www.w3.org/1999/02/22-rdf-syntax-ns#"
   xmlns:svg="http://www.w3.org/2000/svg"
   xmlns="http://www.w3.org/2000/svg"
   xmlns:sodipodi="http://sodipodi.sourceforge.net/DTD/sodipodi-0.dtd"
   xmlns:inkscape="http://www.inkscape.org/namespaces/inkscape"
   version="1.0"
   width="512.000000pt"
   height="512.000000pt"
   viewBox="0 0 512.000000 512.000000"
   preserveAspectRatio="xMidYMid meet"
   id="svg44"
   sodipodi:docname="favicon-D9ECEC.svg"
   inkscape:version="0.92.4 (5da689c313, 2019-01-14)">
  <metadata
     id="metadata50">
    <rdf:RDF>
      <cc:Work
         rdf:about="">
        <dc:format>image/svg+xml</dc:format>
        <dc:type
           rdf:resource="http://purl.org/dc/dcmitype/StillImage" />
        <dc:title></dc:title>
      </cc:Work>
    </rdf:RDF>
  </metadata>
  <defs
     id="defs48" />
  <sodipodi:namedview
     pagecolor="#ffffff"
     bordercolor="#666666"
     borderopacity="1"
     objecttolerance="10"
     gridtolerance="10"
     guidetolerance="10"
     inkscape:pageopacity="0"
     inkscape:pageshadow="2"
     inkscape:window-width="1920"
     inkscape:window-height="1001"
     id="namedview46"
     showgrid="false"
     inkscape:zoom="0.34570313"
     inkscape:cx="341.33333"
     inkscape:cy="341.33333"
     inkscape:window-x="-9"
     inkscape:window-y="-9"
     inkscape:window-maximized="1"
     inkscape:current-layer="svg44" />
  <g
     transform="translate(0.000000,512.000000) scale(0.100000,-0.100000)"
     fill="#000000"
     stroke="none"
     id="g42"
     style="fill:#d9ecec;fill-opacity:1">
    <path
       d="M2420 5110 c-320 -22 -669 -108 -900 -221 -45 -21 -83 -39 -85 -39 -13 0 -202 -111 -295 -172 -152 -101 -219 -156 -363 -297 -144 -141 -232 -246 -334 -401 -65 -97 -163 -263 -163 -274 0 -3 -21 -47 -46 -98 -154 -315 -248 -811 -223 -1176 19 -261 61 -482 134 -697 53 -156 189 -434 278 -565 l64 -95 52 -3 52 -3 -92 138 c-184 274 -319 616 -373 938 -29 174 -39 401 -27 577 14 198 31 302 76 475 86 327 253 649 484 933 113 138 210 234 356 350 223 178 405 282 678 391 296 118 685 175 1031 150 196 -14 300 -31 473 -76 324 -85 636 -246 925 -477 389 -313 697 -788 823 -1271 45 -173 62 -278 75 -472 38 -536 -104 -1078 -399 -1518 l-92 -138 52 3 52 3 64 95 c86 127 233 427 282 575 97 294 149 669 130 938 -28 392 -107 695 -264 1006 -142 280 -290 485 -502 692 -205 200 -388 330 -658 465 -338 170 -630 242 -1090 268 -33 2 -112 0 -175 -4z"
       id="path2"
       style="fill:#d9ecec;fill-opacity:1" />
    <path
       d="M2570 4415 l0 -95 -145 0 -145 0 0 -90 0 -90 145 0 145 0 0 -55 0 -55 -440 0 -440 0 0 -90 0 -90 440 0 440 0 0 -610 c0 -335 -3 -610 -7 -610 -3 0 -14 6 -22 13 -9 8 -53 39 -98 71 l-83 57 0 -123 0 -123 105 -74 105 -74 0 -374 0 -373 95 0 95 0 2 306 3 306 90 -64 c50 -35 96 -67 103 -72 9 -5 12 20 12 112 l0 120 -84 60 c-46 33 -93 65 -105 71 l-21 12 0 684 0 685 440 0 440 0 0 90 0 90 -440 0 -440 0 0 55 0 55 145 0 145 0 0 90 0 90 -145 0 -145 0 0 95 0 95 -95 0 -95 0 0 -95z"
       id="path4"
       style="fill:#d9ecec;fill-opacity:1" />
    <path
       d="M1597 3514 c-282 -61 -526 -266 -602 -507 -98 -306 -27 -620 186 -823 106 -101 207 -157 370 -205 69 -20 99 -22 474 -26 l400 -4 -51 29 c-76 43 -112 70 -183 137 -117 111 -171 200 -217 356 -25 83 -28 110 -28 229 1 158 20 242 82 366 72 143 200 294 338 400 41 31 74 58 74 60 0 2 -174 4 -387 3 -299 0 -403 -4 -456 -15z"
       id="path6"
       style="fill:#d9ecec;fill-opacity:1" />
    <path
       d="M4059 2187 c-8 -18 -46 -89 -83 -159 l-68 -128 -246 0 c-225 0 -248 -2 -258 -17 -6 -10 -39 -73 -73 -140 l-62 -123 -1002 0 -1002 0 -290 290 -291 291 -28 -30 c-21 -22 -26 -34 -19 -43 6 -7 92 -119 192 -248 100 -129 201 -257 223 -283 46 -55 44 -52 133 -257 37 -85 77 -176 88 -202 l22 -48 1251 0 1251 0 25 63 c14 34 47 112 73 174 l48 112 -47 52 c-61 68 -65 115 -14 163 29 26 35 28 97 24 36 -3 72 -7 79 -9 9 -3 45 74 112 241 55 135 105 256 112 270 7 14 14 28 16 33 2 4 -48 7 -110 7 l-113 -1 -16 -32z m-2289 -757 l0 -90 -85 0 -85 0 0 90 0 90 85 0 85 0 0 -90z m830 0 l0 -90 -74 0 c-108 0 -106 -2 -106 96 l0 84 90 0 90 0 0 -90z m820 0 l0 -90 -85 0 -85 0 0 90 0 90 85 0 85 0 0 -90z"
       id="path8"
       style="fill:#d9ecec;fill-opacity:1" />
    <path
       d="M4806 1045 c-14 -38 20 -65 83 -65 70 0 116 34 90 66 -20 24 -47 17 -51 -13 -3 -24 -8 -28 -33 -28 -25 0 -30 4 -33 28 -3 21 -9 27 -27 27 -12 0 -25 -7 -29 -15z"
       id="path10"
       style="fill:#d9ecec;fill-opacity:1" />
    <path
       d="M577 957 c-8 -6 -44 -81 -78 -165 -50 -123 -67 -156 -86 -163 -16 -6 -31 -5 -44 1 -17 10 -19 23 -19 154 0 138 1 144 23 159 20 15 8 16 -166 16 -123 1 -186 -2 -182 -9 3 -5 13 -10 21 -10 12 0 14 -27 14 -155 0 -128 -2 -155 -14 -155 -8 0 -18 -4 -21 -10 -4 -6 24 -10 77 -9 67 0 79 2 61 11 -22 11 -23 15 -23 165 l0 153 70 0 70 0 0 -145 c0 -135 -1 -145 -22 -165 l-22 -20 140 0 c125 1 137 2 119 15 -18 14 -18 18 -5 58 15 41 16 42 66 45 l51 3 12 -47 c11 -41 10 -48 -6 -60 -15 -11 0 -13 109 -14 120 0 128 1 143 23 26 37 56 148 62 230 l6 77 33 0 34 0 0 -154 c0 -150 0 -154 -22 -162 -19 -6 -16 -8 19 -11 24 -2 62 -2 85 0 36 3 39 5 21 11 -23 8 -23 12 -23 162 0 127 2 154 14 154 8 0 18 5 21 10 4 6 -42 10 -130 10 -88 0 -134 -4 -130 -10 3 -5 15 -10 26 -10 23 0 25 -27 5 -121 -26 -122 -69 -181 -133 -183 l-37 -1 -58 164 c-32 90 -59 166 -61 168 -2 1 -11 -3 -20 -10z m-7 -132 c5 -14 13 -37 16 -50 6 -23 3 -25 -31 -25 -26 0 -36 4 -32 13 2 6 10 29 18 50 7 20 14 37 16 37 2 0 8 -11 13 -25z"
       id="path12"
       style="fill:#d9ecec;fill-opacity:1" />
    <path
       d="M1248 950 c-91 -50 -121 -161 -71 -267 43 -91 211 -114 292 -40 84 78 78 234 -12 301 -41 30 -158 34 -209 6z m149 -22 c37 -31 55 -137 37 -226 -13 -62 -69 -95 -125 -72 -36 15 -58 55 -66 120 -14 122 31 208 103 197 20 -3 43 -12 51 -19z"
       id="path14"
       style="fill:#d9ecec;fill-opacity:1" />
    <path
       d="M3672 949 c-51 -25 -88 -77 -98 -134 -12 -82 34 -173 103 -201 39 -17 118 -18 162 -3 48 17 38 31 -18 23 -35 -5 -58 -2 -84 11 -109 51 -98 276 14 300 45 10 66 -2 73 -40 4 -19 11 -35 16 -35 9 0 13 13 24 72 5 22 -13 28 -87 28 -43 0 -75 -7 -105 -21z"
       id="path16"
       style="fill:#d9ecec;fill-opacity:1" />
    <path
       d="M1598 943 c21 -15 22 -21 22 -158 0 -137 -1 -143 -22 -158 -22 -15 -21 -16 35 -16 36 -1 56 3 52 9 -3 6 -13 10 -21 10 -11 0 -14 22 -14 123 l1 122 52 -130 c31 -75 59 -131 68 -133 10 -2 31 38 71 135 l57 138 1 -127 c0 -105 -3 -128 -14 -128 -8 0 -18 -4 -21 -10 -4 -6 24 -10 77 -9 67 0 79 2 61 11 -22 11 -23 15 -23 165 0 126 2 153 14 153 8 0 18 5 21 10 4 6 -18 10 -58 10 l-65 0 -49 -120 -50 -120 -47 120 -48 120 -61 -1 c-59 0 -61 -1 -39 -16z"
       id="path18"
       style="fill:#d9ecec;fill-opacity:1" />
    <path
       d="M2055 950 c3 -5 13 -10 21 -10 12 0 14 -27 14 -155 0 -128 -2 -155 -14 -155 -8 0 -18 -4 -21 -10 -4 -6 24 -10 77 -9 67 0 79 2 61 11 -21 10 -23 18 -23 90 l0 78 70 0 70 0 0 -76 c0 -61 -4 -79 -17 -90 -16 -11 -7 -13 60 -14 50 0 76 4 72 10 -3 6 -13 10 -21 10 -12 0 -14 27 -14 155 0 128 2 155 14 155 8 0 18 5 21 10 4 6 -22 10 -72 10 -67 -1 -76 -3 -60 -14 13 -10 17 -28 17 -75 l0 -61 -70 0 -70 0 0 61 c0 47 4 65 18 75 15 11 6 13 -61 14 -50 0 -76 -4 -72 -10z"
       id="path20"
       style="fill:#d9ecec;fill-opacity:1" />
    <path
       d="M2475 950 c3 -5 13 -10 21 -10 12 0 14 -27 14 -155 0 -128 -2 -155 -14 -155 -8 0 -18 -4 -21 -10 -4 -6 22 -10 72 -10 67 1 76 3 61 14 -36 27 -22 65 50 140 37 39 70 73 75 74 4 2 7 -41 7 -96 0 -92 -2 -101 -22 -115 -22 -15 -18 -16 62 -16 66 0 80 3 63 11 -29 14 -33 34 -33 163 0 129 4 149 33 163 17 8 4 11 -61 11 -53 1 -81 -3 -77 -9 3 -5 13 -10 21 -10 34 0 10 -48 -61 -123 l-75 -79 0 98 c0 80 3 99 18 110 15 11 6 13 -61 14 -50 0 -76 -4 -72 -10z"
       id="path22"
       style="fill:#d9ecec;fill-opacity:1" />
    <path
       d="M2895 948 c30 -17 35 -28 35 -90 0 -46 4 -61 23 -79 19 -18 31 -20 90 -16 l67 4 0 -67 c0 -61 -2 -68 -22 -76 -19 -6 -16 -8 20 -11 23 -2 61 -2 85 0 35 3 38 5 20 11 -23 8 -23 12 -23 162 0 127 2 154 14 154 8 0 18 5 21 10 4 6 -22 10 -72 10 -67 -1 -76 -3 -60 -14 13 -10 17 -28 17 -79 0 -62 -2 -67 -24 -73 -56 -14 -86 19 -86 95 0 29 6 43 23 54 21 15 17 16 -63 16 -68 0 -81 -2 -65 -11z"
       id="path24"
       style="fill:#d9ecec;fill-opacity:1" />
    <path
       d="M3275 950 c3 -5 13 -10 21 -10 12 0 14 -27 14 -154 0 -150 -1 -154 -22 -162 -15 -5 23 -9 106 -11 71 -2 131 -2 133 1 2 2 3 26 1 52 l-4 49 -19 -42 c-18 -42 -19 -43 -67 -43 l-48 0 0 75 0 75 30 0 c23 0 31 -5 36 -25 11 -43 24 -27 24 30 0 55 -13 73 -25 35 -4 -14 -15 -20 -36 -20 l-29 0 0 70 0 70 45 0 c43 0 46 -2 52 -30 11 -55 26 -50 37 13 l7 37 -131 0 c-85 0 -129 -4 -125 -10z"
       id="path26"
       style="fill:#d9ecec;fill-opacity:1" />
    <path
       d="M3905 950 c3 -5 13 -10 21 -10 12 0 14 -27 14 -155 0 -128 -2 -155 -14 -155 -8 0 -18 -4 -21 -10 -4 -6 24 -10 77 -9 67 0 79 2 61 11 -21 10 -23 18 -23 85 0 95 16 96 65 6 53 -97 60 -103 119 -103 l51 0 -28 23 c-15 12 -47 56 -70 97 l-43 75 39 58 c21 32 49 63 63 69 13 6 24 15 24 20 0 13 -96 9 -108 -4 -5 -7 -17 -39 -26 -70 -16 -56 -36 -78 -70 -78 -24 0 -23 128 2 146 15 11 6 13 -61 14 -50 0 -76 -4 -72 -10z"
       id="path28"
       style="fill:#d9ecec;fill-opacity:1" />
    <path
       d="M4285 950 c3 -5 13 -10 21 -10 12 0 14 -27 14 -155 0 -128 -2 -155 -14 -155 -8 0 -18 -4 -21 -10 -4 -6 22 -10 72 -10 67 1 76 3 61 14 -36 27 -22 65 50 140 37 39 70 73 75 74 4 2 7 -41 7 -96 0 -92 -2 -101 -22 -115 -22 -15 -18 -16 62 -16 66 0 80 3 63 11 -29 14 -33 34 -33 163 0 129 4 149 33 163 17 8 4 11 -61 11 -53 1 -81 -3 -77 -9 3 -5 13 -10 21 -10 34 0 10 -48 -61 -123 l-75 -79 0 98 c0 80 3 99 18 110 15 11 6 13 -61 14 -50 0 -76 -4 -72 -10z"
       id="path30"
       style="fill:#d9ecec;fill-opacity:1" />
    <path
       d="M4705 950 c3 -5 13 -10 21 -10 12 0 14 -27 14 -155 0 -128 -2 -155 -14 -155 -8 0 -18 -4 -21 -10 -4 -6 24 -10 77 -9 67 0 79 2 61 11 -17 8 -23 20 -23 42 0 25 14 45 71 104 39 39 73 72 75 72 2 0 4 -47 4 -105 0 -85 -3 -105 -14 -105 -8 0 -18 -4 -21 -10 -4 -6 24 -10 77 -9 67 0 79 2 61 11 -22 11 -23 15 -23 163 0 148 1 152 23 163 18 9 6 11 -61 11 -53 1 -81 -3 -77 -9 3 -5 13 -10 21 -10 34 0 10 -48 -61 -123 l-75 -79 0 98 c0 80 3 99 18 110 15 11 6 13 -61 14 -50 0 -76 -4 -72 -10z"
       id="path32"
       style="fill:#d9ecec;fill-opacity:1" />
    <path
       d="M1685 450 c3 -5 13 -10 21 -10 12 0 14 -27 14 -154 0 -150 -1 -154 -22 -162 -15 -5 38 -9 139 -11 l162 -3 11 -38 c5 -20 10 -45 10 -54 0 -10 6 -18 14 -18 8 0 16 17 20 46 10 77 9 84 -19 84 l-25 0 0 154 c0 150 0 154 23 162 18 6 15 8 -20 11 -24 2 -62 2 -85 0 -36 -3 -39 -5 -20 -11 22 -8 22 -12 22 -162 l0 -154 -65 0 -65 0 0 153 c0 150 1 154 23 165 18 9 6 11 -61 11 -53 1 -81 -3 -77 -9z"
       id="path34"
       style="fill:#d9ecec;fill-opacity:1" />
    <path
       d="M2105 450 c3 -5 13 -10 21 -10 12 0 14 -27 14 -154 0 -150 -1 -154 -22 -162 -15 -5 23 -9 106 -11 71 -2 131 -2 133 1 2 2 3 26 1 52 l-4 49 -19 -42 c-18 -42 -19 -43 -67 -43 l-48 0 0 75 0 75 30 0 c23 0 31 -5 36 -25 11 -43 24 -27 24 30 0 55 -13 73 -25 35 -4 -14 -15 -20 -36 -20 l-29 0 0 70 0 70 45 0 c43 0 46 -2 52 -30 11 -55 26 -50 37 13 l7 37 -131 0 c-85 0 -129 -4 -125 -10z"
       id="path36"
       style="fill:#d9ecec;fill-opacity:1" />
    <path
       d="M2405 450 c3 -5 13 -10 21 -10 12 0 14 -27 14 -155 0 -128 -2 -155 -14 -155 -8 0 -18 -4 -21 -10 -4 -6 24 -10 77 -9 67 0 79 2 61 11 -21 10 -23 18 -23 90 l0 78 70 0 70 0 0 -76 c0 -61 -4 -79 -17 -90 -16 -11 -7 -13 60 -14 50 0 76 4 72 10 -3 6 -13 10 -21 10 -12 0 -14 27 -14 155 0 87 4 155 9 155 5 0 16 3 25 6 13 5 16 -2 16 -35 0 -50 14 -53 30 -6 10 31 16 35 46 35 l34 0 0 -155 c0 -147 -1 -155 -19 -155 -11 0 -23 -5 -26 -10 -4 -6 27 -10 87 -9 78 1 89 3 66 12 l-28 11 0 153 0 153 34 0 c31 0 34 -3 40 -35 4 -19 11 -35 16 -35 6 0 10 3 10 8 0 4 4 24 9 45 l9 37 -237 0 c-198 -1 -233 -3 -218 -14 13 -10 17 -28 17 -75 l0 -61 -70 0 -70 0 0 61 c0 47 4 65 18 75 15 11 6 13 -61 14 -50 0 -76 -4 -72 -10z"
       id="path38"
       style="fill:#d9ecec;fill-opacity:1" />
    <path
       d="M3144 451 c4 -6 14 -11 22 -11 12 0 14 -27 14 -154 0 -150 0 -154 -22 -162 -19 -6 -16 -8 20 -11 23 -2 61 -2 85 0 35 3 38 5 20 11 -21 7 -23 15 -23 71 l0 63 55 4 c75 6 115 43 115 103 0 32 -6 47 -26 66 -24 22 -35 24 -146 27 -85 3 -118 1 -114 -7z m187 -32 c18 -18 20 -30 16 -67 -5 -49 -25 -72 -64 -72 -22 0 -23 3 -23 80 0 79 0 80 25 80 14 0 35 -10 46 -21z"
       id="path40"
       style="fill:#d9ecec;fill-opacity:1" />
  </g>
</svg>
